<mxfile host="app.diagrams.net" modified="2021-06-15T03:15:06.774Z" agent="5.0 (Windows NT 10.0; Win64; x64) AppleWebKit/537.36 (KHTML, like Gecko) Chrome/91.0.4472.101 Safari/537.36" etag="E0Z-ILDgXBmg1Q4fi-Yz" version="14.7.6" type="github">
  <diagram id="C5RBs43oDa-KdzZeNtuy" name="Page-1">
    <mxGraphModel dx="3849" dy="1138" grid="1" gridSize="10" guides="1" tooltips="1" connect="1" arrows="1" fold="1" page="1" pageScale="1" pageWidth="1654" pageHeight="1169" math="0" shadow="0">
      <root>
        <mxCell id="WIyWlLk6GJQsqaUBKTNV-0" />
        <mxCell id="WIyWlLk6GJQsqaUBKTNV-1" parent="WIyWlLk6GJQsqaUBKTNV-0" />
        <mxCell id="mcn4mRLEZo1HMmz5AlUu-60" style="edgeStyle=orthogonalEdgeStyle;rounded=1;orthogonalLoop=1;jettySize=auto;html=1;dashed=1;startArrow=none;startFill=0;endArrow=open;endFill=0;startSize=10;endSize=10;strokeWidth=3;" edge="1" parent="WIyWlLk6GJQsqaUBKTNV-1" source="mcn4mRLEZo1HMmz5AlUu-21" target="mcn4mRLEZo1HMmz5AlUu-16">
          <mxGeometry relative="1" as="geometry">
            <mxPoint x="-300" y="580" as="targetPoint" />
            <Array as="points">
              <mxPoint x="-130" y="470" />
              <mxPoint x="-130" y="470" />
            </Array>
          </mxGeometry>
        </mxCell>
        <mxCell id="mcn4mRLEZo1HMmz5AlUu-21" value="" style="rounded=0;whiteSpace=wrap;html=1;shadow=0;fillColor=none;gradientColor=none;strokeWidth=2;movable=0;resizable=0;rotatable=0;deletable=0;editable=0;connectable=0;" vertex="1" parent="WIyWlLk6GJQsqaUBKTNV-1">
          <mxGeometry x="-588" y="60" width="490" height="370" as="geometry" />
        </mxCell>
        <mxCell id="mcn4mRLEZo1HMmz5AlUu-61" style="edgeStyle=orthogonalEdgeStyle;rounded=1;orthogonalLoop=1;jettySize=auto;html=1;entryX=0.25;entryY=0;entryDx=0;entryDy=0;dashed=1;startArrow=none;startFill=0;endArrow=open;endFill=0;startSize=10;endSize=10;strokeWidth=3;" edge="1" parent="WIyWlLk6GJQsqaUBKTNV-1" source="mcn4mRLEZo1HMmz5AlUu-19" target="mcn4mRLEZo1HMmz5AlUu-16">
          <mxGeometry relative="1" as="geometry">
            <Array as="points">
              <mxPoint x="-584" y="450" />
              <mxPoint x="-584" y="520" />
            </Array>
          </mxGeometry>
        </mxCell>
        <mxCell id="mcn4mRLEZo1HMmz5AlUu-19" value="" style="rounded=0;whiteSpace=wrap;html=1;shadow=0;fillColor=none;gradientColor=none;movable=0;resizable=0;rotatable=0;deletable=0;editable=0;connectable=0;strokeWidth=2;" vertex="1" parent="WIyWlLk6GJQsqaUBKTNV-1">
          <mxGeometry x="-1628" y="60" width="910" height="1100" as="geometry" />
        </mxCell>
        <mxCell id="mcn4mRLEZo1HMmz5AlUu-16" value="" style="rounded=0;whiteSpace=wrap;html=1;shadow=0;fillColor=none;gradientColor=none;movable=1;resizable=1;rotatable=1;deletable=1;editable=1;connectable=1;strokeWidth=2;" vertex="1" parent="WIyWlLk6GJQsqaUBKTNV-1">
          <mxGeometry x="-690" y="520" width="653" height="640" as="geometry" />
        </mxCell>
        <mxCell id="mcn4mRLEZo1HMmz5AlUu-12" style="edgeStyle=orthogonalEdgeStyle;rounded=1;orthogonalLoop=1;jettySize=auto;html=1;startArrow=none;startFill=0;endArrow=none;endFill=0;startSize=10;endSize=10;" edge="1" parent="WIyWlLk6GJQsqaUBKTNV-1" source="0jcatp8Q0D0t4g7Fgnds-0" target="mcn4mRLEZo1HMmz5AlUu-11">
          <mxGeometry relative="1" as="geometry">
            <Array as="points">
              <mxPoint x="-1140" y="160" />
              <mxPoint x="-1140" y="160" />
            </Array>
          </mxGeometry>
        </mxCell>
        <mxCell id="0jcatp8Q0D0t4g7Fgnds-0" value="NetworkDataSource" style="swimlane;fontStyle=1;align=center;verticalAlign=top;childLayout=stackLayout;horizontal=1;startSize=26;horizontalStack=0;resizeParent=1;resizeParentMax=0;resizeLast=0;collapsible=1;marginBottom=0;fillColor=#C9C9C9;fontSize=12;whiteSpace=wrap;" parent="WIyWlLk6GJQsqaUBKTNV-1" vertex="1">
          <mxGeometry x="-1104" y="150" width="360" height="954" as="geometry" />
        </mxCell>
        <mxCell id="0jcatp8Q0D0t4g7Fgnds-1" value="+refreshDelay: int" style="text;strokeColor=none;fillColor=none;align=left;verticalAlign=top;spacingLeft=4;spacingRight=4;overflow=hidden;rotatable=0;points=[[0,0.5],[1,0.5]];portConstraint=eastwest;fontSize=12;whiteSpace=wrap;" parent="0jcatp8Q0D0t4g7Fgnds-0" vertex="1">
          <mxGeometry y="26" width="360" height="24" as="geometry" />
        </mxCell>
        <mxCell id="mcn4mRLEZo1HMmz5AlUu-80" value="- HOSTNAME static final string" style="text;strokeColor=none;fillColor=none;align=left;verticalAlign=top;spacingLeft=4;spacingRight=4;overflow=hidden;rotatable=0;points=[[0,0.5],[1,0.5]];portConstraint=eastwest;fontSize=12;whiteSpace=wrap;" vertex="1" parent="0jcatp8Q0D0t4g7Fgnds-0">
          <mxGeometry y="50" width="360" height="24" as="geometry" />
        </mxCell>
        <mxCell id="0jcatp8Q0D0t4g7Fgnds-6" value="- PORT static final int" style="text;strokeColor=none;fillColor=none;align=left;verticalAlign=top;spacingLeft=4;spacingRight=4;overflow=hidden;rotatable=0;points=[[0,0.5],[1,0.5]];portConstraint=eastwest;fontSize=12;whiteSpace=wrap;" parent="0jcatp8Q0D0t4g7Fgnds-0" vertex="1">
          <mxGeometry y="74" width="360" height="20" as="geometry" />
        </mxCell>
        <mxCell id="0jcatp8Q0D0t4g7Fgnds-2" value="" style="line;strokeWidth=1;fillColor=none;align=left;verticalAlign=middle;spacingTop=-1;spacingLeft=3;spacingRight=3;rotatable=0;labelPosition=right;points=[];portConstraint=eastwest;fontSize=12;whiteSpace=wrap;" parent="0jcatp8Q0D0t4g7Fgnds-0" vertex="1">
          <mxGeometry y="94" width="360" height="8" as="geometry" />
        </mxCell>
        <mxCell id="0jcatp8Q0D0t4g7Fgnds-14" value="+allOrgUnits(): ArrayList(OrgUnit)&#xa;+allUsers(): ArrayList(User)&#xa;+allAssets():ArrayList(Asset)&#xa;+allInventories(): ArrayList(InventoryRecord)&#xa;+allSellOrders(bool resolved): ArrayList(SellOrder)&#xa;+allBuyOrders(bool resolved): ArrayList(BuyOrder)&#xa;+inventoryRecordByKeys(string unit, int asset): InventoryRecord&#xa;+userByKey(string name): User&#xa;+unitByKey(string name): OrgUnit&#xa;+assetByKey(int id): Asset&#xa;+buyOrderByKey(int id): BuyOrder&#xa;+sellOrderByKey(int id): SellOrder&#xa;+sellOrdersByUnit(string name, bool resolved): ArrayList(SellOrder)&#xa;+sellOrdersByAsset(int assetID, bool resolved): ArrayList(SellOrder)&#xa;+sellOrdersPlacedBetween(datetime start, datetime end, bool resolved): ArrayList(SellOrder)&#xa;+sellOrdersResolvedBetween(datetime start, datetime end): ArrayList(SellOrder)&#xa;+sellOrdersReconciledBetween(datetime start, datetime end): ArrayList(SellOrder)&#xa;+buyOrdersByUnit(string name, bool resolved): ArrayList(BuyOrder)&#xa;+buyOrdersByAsset(int assetID, bool resolved): ArrayList(BuyOrder)&#xa;+buyOrdersPlacedBetween(datetime start, datetime end, bool resolved): ArrayList(BuyOrder)&#xa;+buyOrdersResolvedBetween(datetime start, datetime end): ArrayList(BuyOrder)&#xa;+buyOrdersByAssetResolvedBetween(int assetID, datetime start, datetime end): ArrayList(BuyOrder)&#xa;+usersByUnit(string unit): ArrayList(User)&#xa;+inventoriesByUnit(string unit): ArrayList(InventoryRecord)&#xa;+inventoriesByAsset(int asset): ArrayList(InventoryRecord)&#xa;+buyOrdersByBoughtFrom(int sellID): ArrayList(BuyOrder)&#xa;&#xa;+insertOrUpdateInventory(InventoryRecord): int&#xa;+insertUser(User):int&#xa;+insertUnit(OrgUnit):int&#xa;+insertAsset(Asset):int&#xa;+insertBuyOrder(BuyOrder):int&#xa;+insertSellOrder(SellOrder):int&#xa;&#xa;+updateUser(User):int&#xa;+updateUnit(OrgUnit):int&#xa;+updateAsset(Asset):int&#xa;+updateBuyOrder(BuyOrder):int&#xa;+updateSellOrder(SellOrder):int&#xa;&#xa;+deleteInventoryRecord(string unit, int asset):int&#xa;+deleteUser(string key):int&#xa;+deleteUnit(string key):int&#xa;+deleteAsset(int key):int&#xa;+deleteBuyOrder(int key):int&#xa;+deleteSellOrder(int key):int&#xa;&#xa;+debugDeleteEverything():int&#xa;+recreate():void" style="text;strokeColor=none;fillColor=none;align=left;verticalAlign=top;spacingLeft=4;spacingRight=4;overflow=hidden;rotatable=0;points=[[0,0.5],[1,0.5]];portConstraint=eastwest;whiteSpace=wrap;fontSize=12;" parent="0jcatp8Q0D0t4g7Fgnds-0" vertex="1">
          <mxGeometry y="102" width="360" height="852" as="geometry" />
        </mxCell>
        <mxCell id="0jcatp8Q0D0t4g7Fgnds-160" style="edgeStyle=orthogonalEdgeStyle;rounded=1;orthogonalLoop=1;jettySize=auto;html=1;endArrow=open;endFill=0;fontSize=12;endSize=10;startSize=10;dashed=1;entryX=0;entryY=0.5;entryDx=0;entryDy=0;" parent="WIyWlLk6GJQsqaUBKTNV-1" source="0jcatp8Q0D0t4g7Fgnds-154" target="mcn4mRLEZo1HMmz5AlUu-71" edge="1">
          <mxGeometry relative="1" as="geometry">
            <Array as="points">
              <mxPoint x="-310" y="293" />
              <mxPoint x="-310" y="388" />
            </Array>
          </mxGeometry>
        </mxCell>
        <mxCell id="0jcatp8Q0D0t4g7Fgnds-125" value="NetworkServer" style="swimlane;fontStyle=1;align=center;verticalAlign=top;childLayout=stackLayout;horizontal=1;startSize=26;horizontalStack=0;resizeParent=1;resizeParentMax=0;resizeLast=0;collapsible=1;marginBottom=0;strokeColor=#000000;strokeWidth=1;fillColor=#C9C9C9;html=0;fontSize=12;whiteSpace=wrap;" parent="WIyWlLk6GJQsqaUBKTNV-1" vertex="1">
          <mxGeometry x="-508" y="89" width="160" height="296" as="geometry" />
        </mxCell>
        <mxCell id="0jcatp8Q0D0t4g7Fgnds-126" value="- PORT: static final int" style="text;strokeColor=none;fillColor=none;align=left;verticalAlign=top;spacingLeft=4;spacingRight=4;overflow=hidden;rotatable=0;points=[[0,0.5],[1,0.5]];portConstraint=eastwest;fontSize=12;whiteSpace=wrap;" parent="0jcatp8Q0D0t4g7Fgnds-125" vertex="1">
          <mxGeometry y="26" width="160" height="26" as="geometry" />
        </mxCell>
        <mxCell id="0jcatp8Q0D0t4g7Fgnds-149" value="- TIMEOUT: static final int" style="text;strokeColor=none;fillColor=none;align=left;verticalAlign=top;spacingLeft=4;spacingRight=4;overflow=hidden;rotatable=0;points=[[0,0.5],[1,0.5]];portConstraint=eastwest;fontSize=12;whiteSpace=wrap;" parent="0jcatp8Q0D0t4g7Fgnds-125" vertex="1">
          <mxGeometry y="52" width="160" height="26" as="geometry" />
        </mxCell>
        <mxCell id="0jcatp8Q0D0t4g7Fgnds-150" value="- running: AtomicBoolean" style="text;strokeColor=none;fillColor=none;align=left;verticalAlign=top;spacingLeft=4;spacingRight=4;overflow=hidden;rotatable=0;points=[[0,0.5],[1,0.5]];portConstraint=eastwest;fontSize=12;whiteSpace=wrap;" parent="0jcatp8Q0D0t4g7Fgnds-125" vertex="1">
          <mxGeometry y="78" width="160" height="26" as="geometry" />
        </mxCell>
        <mxCell id="mcn4mRLEZo1HMmz5AlUu-74" value="- tradeReconciliation: Timer" style="text;strokeColor=none;fillColor=none;align=left;verticalAlign=top;spacingLeft=4;spacingRight=4;overflow=hidden;rotatable=0;points=[[0,0.5],[1,0.5]];portConstraint=eastwest;fontSize=12;whiteSpace=wrap;" vertex="1" parent="0jcatp8Q0D0t4g7Fgnds-125">
          <mxGeometry y="104" width="160" height="26" as="geometry" />
        </mxCell>
        <mxCell id="mcn4mRLEZo1HMmz5AlUu-59" value="- connection: Connection" style="text;strokeColor=none;fillColor=none;align=left;verticalAlign=top;spacingLeft=4;spacingRight=4;overflow=hidden;rotatable=0;points=[[0,0.5],[1,0.5]];portConstraint=eastwest;fontSize=12;whiteSpace=wrap;" vertex="1" parent="0jcatp8Q0D0t4g7Fgnds-125">
          <mxGeometry y="130" width="160" height="26" as="geometry" />
        </mxCell>
        <mxCell id="0jcatp8Q0D0t4g7Fgnds-127" value="" style="line;strokeWidth=1;fillColor=none;align=left;verticalAlign=middle;spacingTop=-1;spacingLeft=3;spacingRight=3;rotatable=0;labelPosition=right;points=[];portConstraint=eastwest;fontSize=12;whiteSpace=wrap;" parent="0jcatp8Q0D0t4g7Fgnds-125" vertex="1">
          <mxGeometry y="156" width="160" height="8" as="geometry" />
        </mxCell>
        <mxCell id="0jcatp8Q0D0t4g7Fgnds-154" value="getPort(): int&#xa;startup(): void&#xa;shutdown(): void&#xa;reconcileTrades()" style="text;strokeColor=none;fillColor=none;align=left;verticalAlign=top;spacingLeft=4;spacingRight=4;overflow=hidden;rotatable=0;points=[[0,0.5],[1,0.5]];portConstraint=eastwest;fontSize=12;whiteSpace=wrap;" parent="0jcatp8Q0D0t4g7Fgnds-125" vertex="1">
          <mxGeometry y="164" width="160" height="132" as="geometry" />
        </mxCell>
        <mxCell id="0jcatp8Q0D0t4g7Fgnds-148" style="edgeStyle=orthogonalEdgeStyle;rounded=1;orthogonalLoop=1;jettySize=auto;html=1;endArrow=open;endFill=0;fontSize=12;endSize=10;startSize=10;dashed=1;" parent="WIyWlLk6GJQsqaUBKTNV-1" source="0jcatp8Q0D0t4g7Fgnds-125" target="0jcatp8Q0D0t4g7Fgnds-133" edge="1">
          <mxGeometry relative="1" as="geometry">
            <Array as="points">
              <mxPoint x="-380" y="740" />
            </Array>
          </mxGeometry>
        </mxCell>
        <mxCell id="mcn4mRLEZo1HMmz5AlUu-58" style="edgeStyle=orthogonalEdgeStyle;rounded=1;orthogonalLoop=1;jettySize=auto;html=1;startArrow=none;startFill=0;endArrow=open;endFill=0;startSize=10;endSize=10;dashed=1;" edge="1" parent="WIyWlLk6GJQsqaUBKTNV-1" source="0jcatp8Q0D0t4g7Fgnds-133" target="mcn4mRLEZo1HMmz5AlUu-50">
          <mxGeometry relative="1" as="geometry">
            <Array as="points">
              <mxPoint x="-445" y="710" />
            </Array>
          </mxGeometry>
        </mxCell>
        <mxCell id="0jcatp8Q0D0t4g7Fgnds-133" value="DataPacket" style="swimlane;fontStyle=0;childLayout=stackLayout;horizontal=1;startSize=26;fillColor=none;horizontalStack=0;resizeParent=1;resizeParentMax=0;resizeLast=0;collapsible=1;marginBottom=0;strokeColor=#000000;strokeWidth=1;html=0;fontSize=12;whiteSpace=wrap;" parent="WIyWlLk6GJQsqaUBKTNV-1" vertex="1">
          <mxGeometry x="-650" y="690" width="150" height="130" as="geometry" />
        </mxCell>
        <mxCell id="0jcatp8Q0D0t4g7Fgnds-134" value="+ table: DatabaseTables" style="text;strokeColor=none;fillColor=none;align=left;verticalAlign=top;spacingLeft=4;spacingRight=4;overflow=hidden;rotatable=0;points=[[0,0.5],[1,0.5]];portConstraint=eastwest;fontSize=12;whiteSpace=wrap;" parent="0jcatp8Q0D0t4g7Fgnds-133" vertex="1">
          <mxGeometry y="26" width="150" height="26" as="geometry" />
        </mxCell>
        <mxCell id="0jcatp8Q0D0t4g7Fgnds-135" value="+ filter: string" style="text;strokeColor=none;fillColor=none;align=left;verticalAlign=top;spacingLeft=4;spacingRight=4;overflow=hidden;rotatable=0;points=[[0,0.5],[1,0.5]];portConstraint=eastwest;fontSize=12;whiteSpace=wrap;" parent="0jcatp8Q0D0t4g7Fgnds-133" vertex="1">
          <mxGeometry y="52" width="150" height="26" as="geometry" />
        </mxCell>
        <mxCell id="0jcatp8Q0D0t4g7Fgnds-136" value="+ object: DataObject" style="text;strokeColor=none;fillColor=none;align=left;verticalAlign=top;spacingLeft=4;spacingRight=4;overflow=hidden;rotatable=0;points=[[0,0.5],[1,0.5]];portConstraint=eastwest;fontSize=12;whiteSpace=wrap;" parent="0jcatp8Q0D0t4g7Fgnds-133" vertex="1">
          <mxGeometry y="78" width="150" height="26" as="geometry" />
        </mxCell>
        <mxCell id="0jcatp8Q0D0t4g7Fgnds-143" value="+ insertTypeFlag: boolean" style="text;strokeColor=none;fillColor=none;align=left;verticalAlign=top;spacingLeft=4;spacingRight=4;overflow=hidden;rotatable=0;points=[[0,0.5],[1,0.5]];portConstraint=eastwest;whiteSpace=wrap;fontSize=12;" parent="0jcatp8Q0D0t4g7Fgnds-133" vertex="1">
          <mxGeometry y="104" width="150" height="26" as="geometry" />
        </mxCell>
        <mxCell id="0jcatp8Q0D0t4g7Fgnds-156" value="DBConnection" style="swimlane;fontStyle=1;align=center;verticalAlign=top;childLayout=stackLayout;horizontal=1;startSize=26;horizontalStack=0;resizeParent=1;resizeParentMax=0;resizeLast=0;collapsible=1;marginBottom=0;strokeColor=#000000;strokeWidth=1;fillColor=#C9C9C9;html=0;fontSize=12;whiteSpace=wrap;" parent="WIyWlLk6GJQsqaUBKTNV-1" vertex="1">
          <mxGeometry x="-280" y="280" width="160" height="124" as="geometry" />
        </mxCell>
        <mxCell id="0jcatp8Q0D0t4g7Fgnds-157" value="- connection: Connection" style="text;strokeColor=none;fillColor=none;align=left;verticalAlign=top;spacingLeft=4;spacingRight=4;overflow=hidden;rotatable=0;points=[[0,0.5],[1,0.5]];portConstraint=eastwest;fontSize=12;whiteSpace=wrap;" parent="0jcatp8Q0D0t4g7Fgnds-156" vertex="1">
          <mxGeometry y="26" width="160" height="26" as="geometry" />
        </mxCell>
        <mxCell id="0jcatp8Q0D0t4g7Fgnds-158" value="" style="line;strokeWidth=1;fillColor=none;align=left;verticalAlign=middle;spacingTop=-1;spacingLeft=3;spacingRight=3;rotatable=0;labelPosition=right;points=[];portConstraint=eastwest;fontSize=12;whiteSpace=wrap;" parent="0jcatp8Q0D0t4g7Fgnds-156" vertex="1">
          <mxGeometry y="52" width="160" height="8" as="geometry" />
        </mxCell>
        <mxCell id="0jcatp8Q0D0t4g7Fgnds-159" value="-DBConnection()" style="text;strokeColor=none;fillColor=none;align=left;verticalAlign=top;spacingLeft=4;spacingRight=4;overflow=hidden;rotatable=0;points=[[0,0.5],[1,0.5]];portConstraint=eastwest;fontSize=12;whiteSpace=wrap;" parent="0jcatp8Q0D0t4g7Fgnds-156" vertex="1">
          <mxGeometry y="60" width="160" height="32" as="geometry" />
        </mxCell>
        <mxCell id="mcn4mRLEZo1HMmz5AlUu-71" value="+getConnection()" style="text;strokeColor=none;fillColor=none;align=left;verticalAlign=top;spacingLeft=4;spacingRight=4;overflow=hidden;rotatable=0;points=[[0,0.5],[1,0.5]];portConstraint=eastwest;fontSize=12;whiteSpace=wrap;" vertex="1" parent="0jcatp8Q0D0t4g7Fgnds-156">
          <mxGeometry y="92" width="160" height="32" as="geometry" />
        </mxCell>
        <mxCell id="0jcatp8Q0D0t4g7Fgnds-250" style="edgeStyle=orthogonalEdgeStyle;rounded=1;orthogonalLoop=1;jettySize=auto;html=1;fontSize=12;endArrow=open;endFill=0;endSize=10;startSize=10;dashed=1;" parent="WIyWlLk6GJQsqaUBKTNV-1" source="0jcatp8Q0D0t4g7Fgnds-163" target="mcn4mRLEZo1HMmz5AlUu-11" edge="1">
          <mxGeometry relative="1" as="geometry">
            <mxPoint x="-1210" y="110" as="targetPoint" />
            <Array as="points">
              <mxPoint x="-1280" y="160" />
            </Array>
          </mxGeometry>
        </mxCell>
        <mxCell id="0jcatp8Q0D0t4g7Fgnds-163" value="TradingAppData" style="swimlane;fontStyle=1;align=center;verticalAlign=top;childLayout=stackLayout;horizontal=1;startSize=26;horizontalStack=0;resizeParent=1;resizeParentMax=0;resizeLast=0;collapsible=1;marginBottom=0;fontSize=12;strokeColor=#000000;strokeWidth=1;fillColor=#C9C9C9;html=0;" parent="WIyWlLk6GJQsqaUBKTNV-1" vertex="1">
          <mxGeometry x="-1390" y="216" width="260" height="760" as="geometry" />
        </mxCell>
        <mxCell id="0jcatp8Q0D0t4g7Fgnds-167" value="-data: TradingAppDataSource" style="text;strokeColor=none;fillColor=none;align=left;verticalAlign=top;spacingLeft=4;spacingRight=4;overflow=hidden;rotatable=0;points=[[0,0.5],[1,0.5]];portConstraint=eastwest;" parent="0jcatp8Q0D0t4g7Fgnds-163" vertex="1">
          <mxGeometry y="26" width="260" height="26" as="geometry" />
        </mxCell>
        <mxCell id="0jcatp8Q0D0t4g7Fgnds-165" value="" style="line;strokeWidth=1;fillColor=none;align=left;verticalAlign=middle;spacingTop=-1;spacingLeft=3;spacingRight=3;rotatable=0;labelPosition=right;points=[];portConstraint=eastwest;" parent="0jcatp8Q0D0t4g7Fgnds-163" vertex="1">
          <mxGeometry y="52" width="260" height="8" as="geometry" />
        </mxCell>
        <mxCell id="0jcatp8Q0D0t4g7Fgnds-166" value="TradingAppData(TradingAppDataSource)&#xa;&#xa;TODO: METHODS" style="text;strokeColor=none;fillColor=none;align=left;verticalAlign=top;spacingLeft=4;spacingRight=4;overflow=hidden;rotatable=0;points=[[0,0.5],[1,0.5]];portConstraint=eastwest;whiteSpace=wrap;" parent="0jcatp8Q0D0t4g7Fgnds-163" vertex="1">
          <mxGeometry y="60" width="260" height="700" as="geometry" />
        </mxCell>
        <mxCell id="Zipq2_FpzFxxw_In5oZZ-6" style="edgeStyle=orthogonalEdgeStyle;rounded=1;orthogonalLoop=1;jettySize=auto;html=1;endSize=10;startSize=10;endArrow=open;endFill=0;dashed=1;" parent="WIyWlLk6GJQsqaUBKTNV-1" source="0jcatp8Q0D0t4g7Fgnds-171" target="0jcatp8Q0D0t4g7Fgnds-126" edge="1">
          <mxGeometry relative="1" as="geometry">
            <Array as="points">
              <mxPoint x="-330" y="119" />
              <mxPoint x="-330" y="119" />
            </Array>
          </mxGeometry>
        </mxCell>
        <mxCell id="0jcatp8Q0D0t4g7Fgnds-168" value="ServerGUI" style="swimlane;fontStyle=1;align=center;verticalAlign=top;childLayout=stackLayout;horizontal=1;startSize=26;horizontalStack=0;resizeParent=1;resizeParentMax=0;resizeLast=0;collapsible=1;marginBottom=0;fontSize=12;strokeColor=#000000;strokeWidth=1;fillColor=#C9C9C9;html=0;" parent="WIyWlLk6GJQsqaUBKTNV-1" vertex="1">
          <mxGeometry x="-290" y="72" width="160" height="86" as="geometry" />
        </mxCell>
        <mxCell id="0jcatp8Q0D0t4g7Fgnds-170" value="" style="line;strokeWidth=1;fillColor=none;align=left;verticalAlign=middle;spacingTop=-1;spacingLeft=3;spacingRight=3;rotatable=0;labelPosition=right;points=[];portConstraint=eastwest;" parent="0jcatp8Q0D0t4g7Fgnds-168" vertex="1">
          <mxGeometry y="26" width="160" height="8" as="geometry" />
        </mxCell>
        <mxCell id="0jcatp8Q0D0t4g7Fgnds-171" value="+ main(String[] args): void" style="text;strokeColor=none;fillColor=none;align=left;verticalAlign=top;spacingLeft=4;spacingRight=4;overflow=hidden;rotatable=0;points=[[0,0.5],[1,0.5]];portConstraint=eastwest;" parent="0jcatp8Q0D0t4g7Fgnds-168" vertex="1">
          <mxGeometry y="34" width="160" height="26" as="geometry" />
        </mxCell>
        <mxCell id="0jcatp8Q0D0t4g7Fgnds-173" value="- createAndShowGUI()" style="text;strokeColor=none;fillColor=none;align=left;verticalAlign=top;spacingLeft=4;spacingRight=4;overflow=hidden;rotatable=0;points=[[0,0.5],[1,0.5]];portConstraint=eastwest;" parent="0jcatp8Q0D0t4g7Fgnds-168" vertex="1">
          <mxGeometry y="60" width="160" height="26" as="geometry" />
        </mxCell>
        <mxCell id="0jcatp8Q0D0t4g7Fgnds-184" style="edgeStyle=orthogonalEdgeStyle;rounded=1;orthogonalLoop=1;jettySize=auto;html=1;fontSize=12;endArrow=open;endFill=0;endSize=10;startSize=10;dashed=1;" parent="WIyWlLk6GJQsqaUBKTNV-1" source="0jcatp8Q0D0t4g7Fgnds-176" target="0jcatp8Q0D0t4g7Fgnds-180" edge="1">
          <mxGeometry relative="1" as="geometry">
            <Array as="points">
              <mxPoint x="-1538" y="150" />
              <mxPoint x="-1538" y="150" />
            </Array>
          </mxGeometry>
        </mxCell>
        <mxCell id="0jcatp8Q0D0t4g7Fgnds-176" value="Main" style="swimlane;fontStyle=1;align=center;verticalAlign=top;childLayout=stackLayout;horizontal=1;startSize=26;horizontalStack=0;resizeParent=1;resizeParentMax=0;resizeLast=0;collapsible=1;marginBottom=0;fontSize=12;strokeColor=#000000;strokeWidth=1;fillColor=#C9C9C9;html=0;" parent="WIyWlLk6GJQsqaUBKTNV-1" vertex="1">
          <mxGeometry x="-1618" y="70" width="160" height="60" as="geometry" />
        </mxCell>
        <mxCell id="0jcatp8Q0D0t4g7Fgnds-178" value="" style="line;strokeWidth=1;fillColor=none;align=left;verticalAlign=middle;spacingTop=-1;spacingLeft=3;spacingRight=3;rotatable=0;labelPosition=right;points=[];portConstraint=eastwest;" parent="0jcatp8Q0D0t4g7Fgnds-176" vertex="1">
          <mxGeometry y="26" width="160" height="8" as="geometry" />
        </mxCell>
        <mxCell id="0jcatp8Q0D0t4g7Fgnds-179" value="+ main(String[] args): void" style="text;strokeColor=none;fillColor=none;align=left;verticalAlign=top;spacingLeft=4;spacingRight=4;overflow=hidden;rotatable=0;points=[[0,0.5],[1,0.5]];portConstraint=eastwest;" parent="0jcatp8Q0D0t4g7Fgnds-176" vertex="1">
          <mxGeometry y="34" width="160" height="26" as="geometry" />
        </mxCell>
        <mxCell id="0jcatp8Q0D0t4g7Fgnds-180" value="TradingAppGUI" style="swimlane;fontStyle=1;align=center;verticalAlign=top;childLayout=stackLayout;horizontal=1;startSize=26;horizontalStack=0;resizeParent=1;resizeParentMax=0;resizeLast=0;collapsible=1;marginBottom=0;fontSize=12;strokeColor=#000000;strokeWidth=1;fillColor=#C9C9C9;html=0;" parent="WIyWlLk6GJQsqaUBKTNV-1" vertex="1">
          <mxGeometry x="-1618" y="158" width="190" height="230" as="geometry" />
        </mxCell>
        <mxCell id="0jcatp8Q0D0t4g7Fgnds-181" value="-data: TradingAppData" style="text;strokeColor=none;fillColor=none;align=left;verticalAlign=top;spacingLeft=4;spacingRight=4;overflow=hidden;rotatable=0;points=[[0,0.5],[1,0.5]];portConstraint=eastwest;whiteSpace=wrap;" parent="0jcatp8Q0D0t4g7Fgnds-180" vertex="1">
          <mxGeometry y="26" width="190" height="84" as="geometry" />
        </mxCell>
        <mxCell id="0jcatp8Q0D0t4g7Fgnds-182" value="" style="line;strokeWidth=1;fillColor=none;align=left;verticalAlign=middle;spacingTop=-1;spacingLeft=3;spacingRight=3;rotatable=0;labelPosition=right;points=[];portConstraint=eastwest;" parent="0jcatp8Q0D0t4g7Fgnds-180" vertex="1">
          <mxGeometry y="110" width="190" height="8" as="geometry" />
        </mxCell>
        <mxCell id="0jcatp8Q0D0t4g7Fgnds-183" value="TradingAppGUI(TradingAppData)&#xa;createAndShowGUI()" style="text;strokeColor=none;fillColor=none;align=left;verticalAlign=top;spacingLeft=4;spacingRight=4;overflow=hidden;rotatable=0;points=[[0,0.5],[1,0.5]];portConstraint=eastwest;whiteSpace=wrap;" parent="0jcatp8Q0D0t4g7Fgnds-180" vertex="1">
          <mxGeometry y="118" width="190" height="112" as="geometry" />
        </mxCell>
        <mxCell id="0jcatp8Q0D0t4g7Fgnds-185" style="edgeStyle=orthogonalEdgeStyle;rounded=1;orthogonalLoop=1;jettySize=auto;html=1;fontSize=12;endArrow=open;endFill=0;endSize=10;startSize=10;dashed=1;" parent="WIyWlLk6GJQsqaUBKTNV-1" source="0jcatp8Q0D0t4g7Fgnds-181" edge="1" target="0jcatp8Q0D0t4g7Fgnds-163">
          <mxGeometry relative="1" as="geometry">
            <mxPoint x="-1358" y="231" as="targetPoint" />
            <Array as="points">
              <mxPoint x="-1390" y="226" />
              <mxPoint x="-1390" y="226" />
            </Array>
          </mxGeometry>
        </mxCell>
        <mxCell id="0jcatp8Q0D0t4g7Fgnds-186" value="DataObject" style="swimlane;fontStyle=0;childLayout=stackLayout;horizontal=1;startSize=26;fillColor=none;horizontalStack=0;resizeParent=1;resizeParentMax=0;resizeLast=0;collapsible=1;marginBottom=0;fontSize=12;strokeColor=#000000;strokeWidth=1;html=0;" parent="WIyWlLk6GJQsqaUBKTNV-1" vertex="1">
          <mxGeometry x="-470" y="750" width="140" height="110" as="geometry" />
        </mxCell>
        <mxCell id="0jcatp8Q0D0t4g7Fgnds-189" value="No inherent fields or methods. If a class depends on this class, it also depends on all the subclasses" style="text;strokeColor=none;fillColor=none;align=left;verticalAlign=top;spacingLeft=4;spacingRight=4;overflow=hidden;rotatable=0;points=[[0,0.5],[1,0.5]];portConstraint=eastwest;whiteSpace=wrap;" parent="0jcatp8Q0D0t4g7Fgnds-186" vertex="1">
          <mxGeometry y="26" width="140" height="84" as="geometry" />
        </mxCell>
        <mxCell id="0jcatp8Q0D0t4g7Fgnds-230" style="edgeStyle=orthogonalEdgeStyle;rounded=1;orthogonalLoop=1;jettySize=auto;html=1;fontSize=12;endArrow=block;endFill=0;endSize=10;startSize=10;" parent="WIyWlLk6GJQsqaUBKTNV-1" source="0jcatp8Q0D0t4g7Fgnds-194" target="0jcatp8Q0D0t4g7Fgnds-189" edge="1">
          <mxGeometry relative="1" as="geometry">
            <mxPoint x="-540" y="783" as="targetPoint" />
            <Array as="points">
              <mxPoint x="-340" y="880" />
              <mxPoint x="-340" y="880" />
            </Array>
          </mxGeometry>
        </mxCell>
        <mxCell id="0jcatp8Q0D0t4g7Fgnds-194" value="OrgUnit" style="swimlane;fontStyle=0;childLayout=stackLayout;horizontal=1;startSize=26;fillColor=none;horizontalStack=0;resizeParent=1;resizeParentMax=0;resizeLast=0;collapsible=1;marginBottom=0;fontSize=12;strokeColor=#000000;strokeWidth=1;html=0;" parent="WIyWlLk6GJQsqaUBKTNV-1" vertex="1">
          <mxGeometry x="-425" y="890" width="140" height="78" as="geometry" />
        </mxCell>
        <mxCell id="0jcatp8Q0D0t4g7Fgnds-195" value="+ name: string" style="text;strokeColor=none;fillColor=none;align=left;verticalAlign=top;spacingLeft=4;spacingRight=4;overflow=hidden;rotatable=0;points=[[0,0.5],[1,0.5]];portConstraint=eastwest;" parent="0jcatp8Q0D0t4g7Fgnds-194" vertex="1">
          <mxGeometry y="26" width="140" height="26" as="geometry" />
        </mxCell>
        <mxCell id="0jcatp8Q0D0t4g7Fgnds-196" value="+ credits: int" style="text;strokeColor=none;fillColor=none;align=left;verticalAlign=top;spacingLeft=4;spacingRight=4;overflow=hidden;rotatable=0;points=[[0,0.5],[1,0.5]];portConstraint=eastwest;" parent="0jcatp8Q0D0t4g7Fgnds-194" vertex="1">
          <mxGeometry y="52" width="140" height="26" as="geometry" />
        </mxCell>
        <mxCell id="0jcatp8Q0D0t4g7Fgnds-273" style="edgeStyle=orthogonalEdgeStyle;rounded=1;orthogonalLoop=1;jettySize=auto;html=1;fontSize=12;endArrow=block;endFill=0;endSize=10;startSize=10;" parent="WIyWlLk6GJQsqaUBKTNV-1" source="0jcatp8Q0D0t4g7Fgnds-198" target="0jcatp8Q0D0t4g7Fgnds-189" edge="1">
          <mxGeometry relative="1" as="geometry">
            <Array as="points">
              <mxPoint x="-270" y="1028" />
              <mxPoint x="-270" y="850" />
            </Array>
          </mxGeometry>
        </mxCell>
        <mxCell id="0jcatp8Q0D0t4g7Fgnds-198" value="Asset" style="swimlane;fontStyle=0;childLayout=stackLayout;horizontal=1;startSize=26;fillColor=none;horizontalStack=0;resizeParent=1;resizeParentMax=0;resizeLast=0;collapsible=1;marginBottom=0;fontSize=12;strokeColor=#000000;strokeWidth=1;html=0;" parent="WIyWlLk6GJQsqaUBKTNV-1" vertex="1">
          <mxGeometry x="-425" y="976" width="140" height="104" as="geometry" />
        </mxCell>
        <mxCell id="0jcatp8Q0D0t4g7Fgnds-199" value="+ id: int" style="text;strokeColor=none;fillColor=none;align=left;verticalAlign=top;spacingLeft=4;spacingRight=4;overflow=hidden;rotatable=0;points=[[0,0.5],[1,0.5]];portConstraint=eastwest;" parent="0jcatp8Q0D0t4g7Fgnds-198" vertex="1">
          <mxGeometry y="26" width="140" height="26" as="geometry" />
        </mxCell>
        <mxCell id="0jcatp8Q0D0t4g7Fgnds-200" value="+ description: string&#xa;" style="text;strokeColor=none;fillColor=none;align=left;verticalAlign=top;spacingLeft=4;spacingRight=4;overflow=hidden;rotatable=0;points=[[0,0.5],[1,0.5]];portConstraint=eastwest;" parent="0jcatp8Q0D0t4g7Fgnds-198" vertex="1">
          <mxGeometry y="52" width="140" height="26" as="geometry" />
        </mxCell>
        <mxCell id="0jcatp8Q0D0t4g7Fgnds-201" value="+ field: type" style="text;strokeColor=none;fillColor=none;align=left;verticalAlign=top;spacingLeft=4;spacingRight=4;overflow=hidden;rotatable=0;points=[[0,0.5],[1,0.5]];portConstraint=eastwest;" parent="0jcatp8Q0D0t4g7Fgnds-198" vertex="1">
          <mxGeometry y="78" width="140" height="26" as="geometry" />
        </mxCell>
        <mxCell id="0jcatp8Q0D0t4g7Fgnds-202" value="InventoryRecord" style="swimlane;fontStyle=0;childLayout=stackLayout;horizontal=1;startSize=26;fillColor=none;horizontalStack=0;resizeParent=1;resizeParentMax=0;resizeLast=0;collapsible=1;marginBottom=0;fontSize=12;strokeColor=#000000;strokeWidth=1;html=0;" parent="WIyWlLk6GJQsqaUBKTNV-1" vertex="1">
          <mxGeometry x="-190" y="806" width="140" height="104" as="geometry" />
        </mxCell>
        <mxCell id="0jcatp8Q0D0t4g7Fgnds-203" value="+ unit: string" style="text;strokeColor=none;fillColor=none;align=left;verticalAlign=top;spacingLeft=4;spacingRight=4;overflow=hidden;rotatable=0;points=[[0,0.5],[1,0.5]];portConstraint=eastwest;" parent="0jcatp8Q0D0t4g7Fgnds-202" vertex="1">
          <mxGeometry y="26" width="140" height="26" as="geometry" />
        </mxCell>
        <mxCell id="TjsUoOhzDHoWTj6jHsm3-0" value="+ asset: int" style="text;strokeColor=none;fillColor=none;align=left;verticalAlign=top;spacingLeft=4;spacingRight=4;overflow=hidden;rotatable=0;points=[[0,0.5],[1,0.5]];portConstraint=eastwest;" parent="0jcatp8Q0D0t4g7Fgnds-202" vertex="1">
          <mxGeometry y="52" width="140" height="26" as="geometry" />
        </mxCell>
        <mxCell id="0jcatp8Q0D0t4g7Fgnds-205" value="+ quantity: int" style="text;strokeColor=none;fillColor=none;align=left;verticalAlign=top;spacingLeft=4;spacingRight=4;overflow=hidden;rotatable=0;points=[[0,0.5],[1,0.5]];portConstraint=eastwest;" parent="0jcatp8Q0D0t4g7Fgnds-202" vertex="1">
          <mxGeometry y="78" width="140" height="26" as="geometry" />
        </mxCell>
        <mxCell id="0jcatp8Q0D0t4g7Fgnds-270" style="edgeStyle=orthogonalEdgeStyle;rounded=1;orthogonalLoop=1;jettySize=auto;html=1;fontSize=12;endArrow=block;endFill=0;endSize=10;startSize=10;" parent="WIyWlLk6GJQsqaUBKTNV-1" source="0jcatp8Q0D0t4g7Fgnds-206" target="0jcatp8Q0D0t4g7Fgnds-189" edge="1">
          <mxGeometry relative="1" as="geometry">
            <Array as="points">
              <mxPoint x="-240" y="1028" />
              <mxPoint x="-240" y="830" />
            </Array>
          </mxGeometry>
        </mxCell>
        <mxCell id="0jcatp8Q0D0t4g7Fgnds-206" value="Order" style="swimlane;fontStyle=0;childLayout=stackLayout;horizontal=1;startSize=26;fillColor=none;horizontalStack=0;resizeParent=1;resizeParentMax=0;resizeLast=0;collapsible=1;marginBottom=0;fontSize=12;strokeColor=#000000;strokeWidth=1;html=0;" parent="WIyWlLk6GJQsqaUBKTNV-1" vertex="1">
          <mxGeometry x="-200" y="924" width="140" height="208" as="geometry" />
        </mxCell>
        <mxCell id="0jcatp8Q0D0t4g7Fgnds-232" value="+ id: int" style="text;strokeColor=none;fillColor=none;align=left;verticalAlign=top;spacingLeft=4;spacingRight=4;overflow=hidden;rotatable=0;points=[[0,0.5],[1,0.5]];portConstraint=eastwest;" parent="0jcatp8Q0D0t4g7Fgnds-206" vertex="1">
          <mxGeometry y="26" width="140" height="26" as="geometry" />
        </mxCell>
        <mxCell id="0jcatp8Q0D0t4g7Fgnds-207" value="+ unit: string" style="text;strokeColor=none;fillColor=none;align=left;verticalAlign=top;spacingLeft=4;spacingRight=4;overflow=hidden;rotatable=0;points=[[0,0.5],[1,0.5]];portConstraint=eastwest;" parent="0jcatp8Q0D0t4g7Fgnds-206" vertex="1">
          <mxGeometry y="52" width="140" height="26" as="geometry" />
        </mxCell>
        <mxCell id="0jcatp8Q0D0t4g7Fgnds-208" value="+ asset: int" style="text;strokeColor=none;fillColor=none;align=left;verticalAlign=top;spacingLeft=4;spacingRight=4;overflow=hidden;rotatable=0;points=[[0,0.5],[1,0.5]];portConstraint=eastwest;" parent="0jcatp8Q0D0t4g7Fgnds-206" vertex="1">
          <mxGeometry y="78" width="140" height="26" as="geometry" />
        </mxCell>
        <mxCell id="0jcatp8Q0D0t4g7Fgnds-213" value="+ dateplaced: datetime" style="text;strokeColor=none;fillColor=none;align=left;verticalAlign=top;spacingLeft=4;spacingRight=4;overflow=hidden;rotatable=0;points=[[0,0.5],[1,0.5]];portConstraint=eastwest;" parent="0jcatp8Q0D0t4g7Fgnds-206" vertex="1">
          <mxGeometry y="104" width="140" height="26" as="geometry" />
        </mxCell>
        <mxCell id="0jcatp8Q0D0t4g7Fgnds-212" value="+ dateresolved: datetime" style="text;strokeColor=none;fillColor=none;align=left;verticalAlign=top;spacingLeft=4;spacingRight=4;overflow=hidden;rotatable=0;points=[[0,0.5],[1,0.5]];portConstraint=eastwest;" parent="0jcatp8Q0D0t4g7Fgnds-206" vertex="1">
          <mxGeometry y="130" width="140" height="26" as="geometry" />
        </mxCell>
        <mxCell id="0jcatp8Q0D0t4g7Fgnds-211" value="+ quantity: int" style="text;strokeColor=none;fillColor=none;align=left;verticalAlign=top;spacingLeft=4;spacingRight=4;overflow=hidden;rotatable=0;points=[[0,0.5],[1,0.5]];portConstraint=eastwest;" parent="0jcatp8Q0D0t4g7Fgnds-206" vertex="1">
          <mxGeometry y="156" width="140" height="26" as="geometry" />
        </mxCell>
        <mxCell id="0jcatp8Q0D0t4g7Fgnds-209" value="+ price: int" style="text;strokeColor=none;fillColor=none;align=left;verticalAlign=top;spacingLeft=4;spacingRight=4;overflow=hidden;rotatable=0;points=[[0,0.5],[1,0.5]];portConstraint=eastwest;" parent="0jcatp8Q0D0t4g7Fgnds-206" vertex="1">
          <mxGeometry y="182" width="140" height="26" as="geometry" />
        </mxCell>
        <mxCell id="0jcatp8Q0D0t4g7Fgnds-229" style="edgeStyle=orthogonalEdgeStyle;rounded=1;orthogonalLoop=1;jettySize=auto;html=1;fontSize=12;endArrow=block;endFill=0;endSize=10;startSize=10;" parent="WIyWlLk6GJQsqaUBKTNV-1" target="0jcatp8Q0D0t4g7Fgnds-211" edge="1" source="0jcatp8Q0D0t4g7Fgnds-215">
          <mxGeometry relative="1" as="geometry">
            <mxPoint x="-508" y="973" as="targetPoint" />
            <Array as="points">
              <mxPoint x="-240" y="1100" />
            </Array>
            <mxPoint x="-329" y="1106" as="sourcePoint" />
          </mxGeometry>
        </mxCell>
        <mxCell id="0jcatp8Q0D0t4g7Fgnds-215" value="SellOrder" style="swimlane;fontStyle=0;childLayout=stackLayout;horizontal=1;startSize=26;fillColor=none;horizontalStack=0;resizeParent=1;resizeParentMax=0;resizeLast=0;collapsible=1;marginBottom=0;fontSize=12;strokeColor=#000000;strokeWidth=1;html=0;" parent="WIyWlLk6GJQsqaUBKTNV-1" vertex="1">
          <mxGeometry x="-280" y="1038" width="70" height="52" as="geometry" />
        </mxCell>
        <mxCell id="0jcatp8Q0D0t4g7Fgnds-225" style="edgeStyle=orthogonalEdgeStyle;rounded=1;orthogonalLoop=1;jettySize=auto;html=1;fontSize=12;endArrow=block;endFill=0;endSize=10;startSize=10;" parent="WIyWlLk6GJQsqaUBKTNV-1" source="0jcatp8Q0D0t4g7Fgnds-224" target="0jcatp8Q0D0t4g7Fgnds-209" edge="1">
          <mxGeometry relative="1" as="geometry">
            <mxPoint x="-200" y="1120" as="targetPoint" />
            <Array as="points">
              <mxPoint x="-290" y="1119" />
            </Array>
            <mxPoint x="-458.00000000000045" y="1106" as="sourcePoint" />
          </mxGeometry>
        </mxCell>
        <mxCell id="0jcatp8Q0D0t4g7Fgnds-221" value="BuyOrder" style="swimlane;fontStyle=0;childLayout=stackLayout;horizontal=1;startSize=26;fillColor=none;horizontalStack=0;resizeParent=1;resizeParentMax=0;resizeLast=0;collapsible=1;marginBottom=0;fontSize=12;strokeColor=#000000;strokeWidth=1;html=0;" parent="WIyWlLk6GJQsqaUBKTNV-1" vertex="1">
          <mxGeometry x="-410" y="1090" width="110" height="52" as="geometry" />
        </mxCell>
        <mxCell id="0jcatp8Q0D0t4g7Fgnds-224" value="+ boughtFrom: int" style="text;strokeColor=none;fillColor=none;align=left;verticalAlign=top;spacingLeft=4;spacingRight=4;overflow=hidden;rotatable=0;points=[[0,0.5],[1,0.5]];portConstraint=eastwest;" parent="0jcatp8Q0D0t4g7Fgnds-221" vertex="1">
          <mxGeometry y="26" width="110" height="26" as="geometry" />
        </mxCell>
        <mxCell id="0jcatp8Q0D0t4g7Fgnds-275" style="edgeStyle=orthogonalEdgeStyle;rounded=1;orthogonalLoop=1;jettySize=auto;html=1;fontSize=12;endArrow=block;endFill=0;endSize=10;startSize=10;" parent="WIyWlLk6GJQsqaUBKTNV-1" source="0jcatp8Q0D0t4g7Fgnds-237" edge="1" target="0jcatp8Q0D0t4g7Fgnds-189">
          <mxGeometry relative="1" as="geometry">
            <Array as="points">
              <mxPoint x="-240" y="690" />
              <mxPoint x="-240" y="790" />
            </Array>
            <mxPoint x="-390" y="766" as="targetPoint" />
          </mxGeometry>
        </mxCell>
        <mxCell id="0jcatp8Q0D0t4g7Fgnds-237" value="User" style="swimlane;fontStyle=1;align=center;verticalAlign=top;childLayout=stackLayout;horizontal=1;startSize=26;horizontalStack=0;resizeParent=1;resizeParentMax=0;resizeLast=0;collapsible=1;marginBottom=0;fontSize=12;strokeColor=#000000;strokeWidth=1;fillColor=#C9C9C9;html=0;" parent="WIyWlLk6GJQsqaUBKTNV-1" vertex="1">
          <mxGeometry x="-210" y="595" width="160" height="190" as="geometry" />
        </mxCell>
        <mxCell id="0jcatp8Q0D0t4g7Fgnds-238" value="+name: string" style="text;strokeColor=none;fillColor=none;align=left;verticalAlign=top;spacingLeft=4;spacingRight=4;overflow=hidden;rotatable=0;points=[[0,0.5],[1,0.5]];portConstraint=eastwest;" parent="0jcatp8Q0D0t4g7Fgnds-237" vertex="1">
          <mxGeometry y="26" width="160" height="26" as="geometry" />
        </mxCell>
        <mxCell id="0jcatp8Q0D0t4g7Fgnds-243" value="+adminaccess: bool" style="text;strokeColor=none;fillColor=none;align=left;verticalAlign=top;spacingLeft=4;spacingRight=4;overflow=hidden;rotatable=0;points=[[0,0.5],[1,0.5]];portConstraint=eastwest;" parent="0jcatp8Q0D0t4g7Fgnds-237" vertex="1">
          <mxGeometry y="52" width="160" height="26" as="geometry" />
        </mxCell>
        <mxCell id="0jcatp8Q0D0t4g7Fgnds-244" value="-salt: string" style="text;strokeColor=none;fillColor=none;align=left;verticalAlign=top;spacingLeft=4;spacingRight=4;overflow=hidden;rotatable=0;points=[[0,0.5],[1,0.5]];portConstraint=eastwest;" parent="0jcatp8Q0D0t4g7Fgnds-237" vertex="1">
          <mxGeometry y="78" width="160" height="26" as="geometry" />
        </mxCell>
        <mxCell id="0jcatp8Q0D0t4g7Fgnds-245" value="-password: string" style="text;strokeColor=none;fillColor=none;align=left;verticalAlign=top;spacingLeft=4;spacingRight=4;overflow=hidden;rotatable=0;points=[[0,0.5],[1,0.5]];portConstraint=eastwest;" parent="0jcatp8Q0D0t4g7Fgnds-237" vertex="1">
          <mxGeometry y="104" width="160" height="26" as="geometry" />
        </mxCell>
        <mxCell id="0jcatp8Q0D0t4g7Fgnds-239" value="" style="line;strokeWidth=1;fillColor=none;align=left;verticalAlign=middle;spacingTop=-1;spacingLeft=3;spacingRight=3;rotatable=0;labelPosition=right;points=[];portConstraint=eastwest;" parent="0jcatp8Q0D0t4g7Fgnds-237" vertex="1">
          <mxGeometry y="130" width="160" height="8" as="geometry" />
        </mxCell>
        <mxCell id="0jcatp8Q0D0t4g7Fgnds-240" value="TODO: CONSTRUCTION AND MODIFICATION HELPER METHODS HERE" style="text;strokeColor=none;fillColor=none;align=left;verticalAlign=top;spacingLeft=4;spacingRight=4;overflow=hidden;rotatable=0;points=[[0,0.5],[1,0.5]];portConstraint=eastwest;whiteSpace=wrap;" parent="0jcatp8Q0D0t4g7Fgnds-237" vertex="1">
          <mxGeometry y="138" width="160" height="52" as="geometry" />
        </mxCell>
        <mxCell id="0jcatp8Q0D0t4g7Fgnds-254" style="edgeStyle=orthogonalEdgeStyle;rounded=1;orthogonalLoop=1;jettySize=auto;html=1;fontSize=12;endArrow=diamondThin;endFill=0;endSize=20;startSize=10;" parent="WIyWlLk6GJQsqaUBKTNV-1" source="0jcatp8Q0D0t4g7Fgnds-186" target="0jcatp8Q0D0t4g7Fgnds-133" edge="1">
          <mxGeometry relative="1" as="geometry">
            <Array as="points">
              <mxPoint x="-556" y="850" />
              <mxPoint x="-556" y="850" />
            </Array>
            <mxPoint x="-40" y="874" as="targetPoint" />
            <mxPoint x="-440" y="810" as="sourcePoint" />
          </mxGeometry>
        </mxCell>
        <mxCell id="0jcatp8Q0D0t4g7Fgnds-277" style="edgeStyle=orthogonalEdgeStyle;rounded=1;orthogonalLoop=1;jettySize=auto;html=1;fontSize=12;endArrow=block;endFill=0;endSize=10;startSize=10;" parent="WIyWlLk6GJQsqaUBKTNV-1" source="0jcatp8Q0D0t4g7Fgnds-202" target="0jcatp8Q0D0t4g7Fgnds-189" edge="1">
          <mxGeometry relative="1" as="geometry">
            <mxPoint x="-330.0000000000002" y="815" as="targetPoint" />
            <mxPoint x="-270" y="783" as="sourcePoint" />
            <Array as="points">
              <mxPoint x="-260" y="810" />
              <mxPoint x="-260" y="810" />
            </Array>
          </mxGeometry>
        </mxCell>
        <mxCell id="mcn4mRLEZo1HMmz5AlUu-11" value="TradingAppDataSource&lt;br&gt;(abstract class)&lt;br&gt;&lt;br&gt;&lt;br&gt;&lt;br&gt;&lt;br&gt;" style="ellipse;whiteSpace=wrap;html=1;aspect=fixed;shadow=0;fillColor=#ffffff;gradientColor=none;" vertex="1" parent="WIyWlLk6GJQsqaUBKTNV-1">
          <mxGeometry x="-1220" y="140" width="40" height="40" as="geometry" />
        </mxCell>
        <mxCell id="mcn4mRLEZo1HMmz5AlUu-15" value="common" style="shape=folder;fontStyle=1;spacingTop=10;tabWidth=40;tabHeight=14;tabPosition=left;html=1;shadow=0;fillColor=none;gradientColor=none;" vertex="1" parent="WIyWlLk6GJQsqaUBKTNV-1">
          <mxGeometry x="-690" y="470" width="70" height="50" as="geometry" />
        </mxCell>
        <mxCell id="mcn4mRLEZo1HMmz5AlUu-18" value="client" style="shape=folder;fontStyle=1;spacingTop=10;tabWidth=40;tabHeight=14;tabPosition=left;html=1;shadow=0;fillColor=none;gradientColor=none;" vertex="1" parent="WIyWlLk6GJQsqaUBKTNV-1">
          <mxGeometry x="-1628" y="10" width="70" height="50" as="geometry" />
        </mxCell>
        <mxCell id="0jcatp8Q0D0t4g7Fgnds-252" style="edgeStyle=orthogonalEdgeStyle;rounded=1;orthogonalLoop=1;jettySize=auto;html=1;fontSize=12;endArrow=open;endFill=0;endSize=10;startSize=10;dashed=1;" parent="WIyWlLk6GJQsqaUBKTNV-1" source="0jcatp8Q0D0t4g7Fgnds-14" target="0jcatp8Q0D0t4g7Fgnds-186" edge="1">
          <mxGeometry relative="1" as="geometry">
            <Array as="points">
              <mxPoint x="-470" y="990" />
            </Array>
          </mxGeometry>
        </mxCell>
        <mxCell id="0jcatp8Q0D0t4g7Fgnds-145" style="edgeStyle=orthogonalEdgeStyle;rounded=1;orthogonalLoop=1;jettySize=auto;html=1;fontSize=12;endSize=10;startSize=10;endArrow=open;endFill=0;dashed=1;" parent="WIyWlLk6GJQsqaUBKTNV-1" source="0jcatp8Q0D0t4g7Fgnds-14" edge="1" target="0jcatp8Q0D0t4g7Fgnds-133">
          <mxGeometry relative="1" as="geometry">
            <mxPoint x="-848" y="839" as="targetPoint" />
            <Array as="points">
              <mxPoint x="-700" y="730" />
              <mxPoint x="-700" y="730" />
            </Array>
            <mxPoint x="-698" y="354" as="sourcePoint" />
          </mxGeometry>
        </mxCell>
        <mxCell id="0jcatp8Q0D0t4g7Fgnds-251" style="edgeStyle=orthogonalEdgeStyle;rounded=1;orthogonalLoop=1;jettySize=auto;html=1;fontSize=12;endArrow=open;endFill=0;endSize=10;startSize=10;dashed=1;" parent="WIyWlLk6GJQsqaUBKTNV-1" source="0jcatp8Q0D0t4g7Fgnds-166" target="0jcatp8Q0D0t4g7Fgnds-186" edge="1">
          <mxGeometry relative="1" as="geometry">
            <Array as="points">
              <mxPoint x="-1248" y="1130" />
              <mxPoint x="-450" y="1130" />
            </Array>
          </mxGeometry>
        </mxCell>
        <mxCell id="0jcatp8Q0D0t4g7Fgnds-249" style="edgeStyle=orthogonalEdgeStyle;rounded=1;orthogonalLoop=1;jettySize=auto;html=1;fontSize=12;endArrow=open;endFill=0;endSize=10;startSize=10;dashed=1;" parent="WIyWlLk6GJQsqaUBKTNV-1" source="0jcatp8Q0D0t4g7Fgnds-183" target="0jcatp8Q0D0t4g7Fgnds-186" edge="1">
          <mxGeometry relative="1" as="geometry">
            <Array as="points">
              <mxPoint x="-1538" y="1140" />
              <mxPoint x="-430" y="1140" />
            </Array>
          </mxGeometry>
        </mxCell>
        <mxCell id="0jcatp8Q0D0t4g7Fgnds-255" style="edgeStyle=orthogonalEdgeStyle;rounded=1;orthogonalLoop=1;jettySize=auto;html=1;fontSize=12;endArrow=open;endFill=0;endSize=10;startSize=10;dashed=1;" parent="WIyWlLk6GJQsqaUBKTNV-1" source="0jcatp8Q0D0t4g7Fgnds-154" target="0jcatp8Q0D0t4g7Fgnds-186" edge="1">
          <mxGeometry relative="1" as="geometry">
            <Array as="points">
              <mxPoint x="-360" y="490" />
              <mxPoint x="-360" y="490" />
            </Array>
          </mxGeometry>
        </mxCell>
        <mxCell id="mcn4mRLEZo1HMmz5AlUu-36" value="server" style="shape=folder;fontStyle=1;spacingTop=10;tabWidth=40;tabHeight=14;tabPosition=left;html=1;shadow=0;fillColor=none;gradientColor=none;" vertex="1" parent="WIyWlLk6GJQsqaUBKTNV-1">
          <mxGeometry x="-588" y="10" width="70" height="50" as="geometry" />
        </mxCell>
        <mxCell id="mcn4mRLEZo1HMmz5AlUu-50" value="&lt;&lt;enumeration&gt;&gt;&#xa;DatabaseTables" style="swimlane;fontStyle=0;childLayout=stackLayout;horizontal=1;startSize=26;fillColor=none;horizontalStack=0;resizeParent=1;resizeParentMax=0;resizeLast=0;collapsible=1;marginBottom=0;shadow=0;" vertex="1" parent="WIyWlLk6GJQsqaUBKTNV-1">
          <mxGeometry x="-508" y="560" width="110" height="120" as="geometry" />
        </mxCell>
        <mxCell id="mcn4mRLEZo1HMmz5AlUu-51" value="UNIT&#xa;ASSET&#xa;USER&#xa;INV&#xa;SELL&#xa;BUY" style="text;strokeColor=none;fillColor=none;align=left;verticalAlign=top;spacingLeft=4;spacingRight=4;overflow=hidden;rotatable=0;points=[[0,0.5],[1,0.5]];portConstraint=eastwest;" vertex="1" parent="mcn4mRLEZo1HMmz5AlUu-50">
          <mxGeometry y="26" width="110" height="94" as="geometry" />
        </mxCell>
        <mxCell id="mcn4mRLEZo1HMmz5AlUu-62" value="&lt;&lt;enumeration&gt;&gt;&#xa;ProtocolKeywords" style="swimlane;fontStyle=0;childLayout=stackLayout;horizontal=1;startSize=26;fillColor=none;horizontalStack=0;resizeParent=1;resizeParentMax=0;resizeLast=0;collapsible=1;marginBottom=0;shadow=0;" vertex="1" parent="WIyWlLk6GJQsqaUBKTNV-1">
          <mxGeometry x="-650" y="540" width="110" height="120" as="geometry" />
        </mxCell>
        <mxCell id="mcn4mRLEZo1HMmz5AlUu-63" value="SELECT&#xa;INSERT&#xa;UPDATE&#xa;DELETE&#xa;SPECIAL" style="text;strokeColor=none;fillColor=none;align=left;verticalAlign=top;spacingLeft=4;spacingRight=4;overflow=hidden;rotatable=0;points=[[0,0.5],[1,0.5]];portConstraint=eastwest;" vertex="1" parent="mcn4mRLEZo1HMmz5AlUu-62">
          <mxGeometry y="26" width="110" height="94" as="geometry" />
        </mxCell>
        <mxCell id="mcn4mRLEZo1HMmz5AlUu-64" style="edgeStyle=orthogonalEdgeStyle;rounded=1;orthogonalLoop=1;jettySize=auto;html=1;entryX=0;entryY=0.5;entryDx=0;entryDy=0;startArrow=none;startFill=0;endArrow=open;endFill=0;startSize=10;endSize=10;strokeWidth=1;dashed=1;" edge="1" parent="WIyWlLk6GJQsqaUBKTNV-1" source="0jcatp8Q0D0t4g7Fgnds-14" target="mcn4mRLEZo1HMmz5AlUu-63">
          <mxGeometry relative="1" as="geometry">
            <Array as="points">
              <mxPoint x="-748" y="613" />
              <mxPoint x="-748" y="613" />
            </Array>
          </mxGeometry>
        </mxCell>
        <mxCell id="mcn4mRLEZo1HMmz5AlUu-65" style="edgeStyle=orthogonalEdgeStyle;rounded=1;orthogonalLoop=1;jettySize=auto;html=1;dashed=1;startArrow=none;startFill=0;endArrow=open;endFill=0;startSize=10;endSize=10;strokeWidth=1;" edge="1" parent="WIyWlLk6GJQsqaUBKTNV-1" source="0jcatp8Q0D0t4g7Fgnds-154" target="mcn4mRLEZo1HMmz5AlUu-62">
          <mxGeometry relative="1" as="geometry">
            <Array as="points">
              <mxPoint x="-560" y="319" />
            </Array>
          </mxGeometry>
        </mxCell>
        <mxCell id="mcn4mRLEZo1HMmz5AlUu-70" style="edgeStyle=orthogonalEdgeStyle;rounded=1;orthogonalLoop=1;jettySize=auto;html=1;startArrow=none;startFill=0;endArrow=diamondThin;endFill=1;startSize=10;endSize=20;strokeWidth=1;" edge="1" parent="WIyWlLk6GJQsqaUBKTNV-1" source="0jcatp8Q0D0t4g7Fgnds-156" target="0jcatp8Q0D0t4g7Fgnds-156">
          <mxGeometry relative="1" as="geometry">
            <Array as="points">
              <mxPoint x="-110" y="330" />
              <mxPoint x="-110" y="250" />
              <mxPoint x="-190" y="250" />
            </Array>
          </mxGeometry>
        </mxCell>
        <mxCell id="mcn4mRLEZo1HMmz5AlUu-72" style="edgeStyle=orthogonalEdgeStyle;rounded=1;orthogonalLoop=1;jettySize=auto;html=1;startArrow=none;startFill=0;endArrow=open;endFill=0;startSize=10;endSize=10;strokeWidth=1;dashed=1;" edge="1" parent="WIyWlLk6GJQsqaUBKTNV-1" source="0jcatp8Q0D0t4g7Fgnds-14" target="mcn4mRLEZo1HMmz5AlUu-51">
          <mxGeometry relative="1" as="geometry">
            <Array as="points">
              <mxPoint x="-620" y="670" />
              <mxPoint x="-620" y="670" />
            </Array>
          </mxGeometry>
        </mxCell>
        <mxCell id="mcn4mRLEZo1HMmz5AlUu-73" style="edgeStyle=orthogonalEdgeStyle;rounded=1;orthogonalLoop=1;jettySize=auto;html=1;dashed=1;startArrow=none;startFill=0;endArrow=open;endFill=0;startSize=10;endSize=10;strokeWidth=1;" edge="1" parent="WIyWlLk6GJQsqaUBKTNV-1" source="0jcatp8Q0D0t4g7Fgnds-154" target="mcn4mRLEZo1HMmz5AlUu-50">
          <mxGeometry relative="1" as="geometry">
            <Array as="points">
              <mxPoint x="-453" y="420" />
              <mxPoint x="-453" y="420" />
            </Array>
          </mxGeometry>
        </mxCell>
        <mxCell id="mcn4mRLEZo1HMmz5AlUu-78" value="NOTE: all listed NetworkDataSource methods are overridden from TradingAppDataSource, and refreshDelay is inherited. There also exists a class MockDataSource which extends TradingAppDataSource but doesn&#39;t use the network and Main can be configured to use it instead" style="shape=note;size=20;whiteSpace=wrap;html=1;shadow=0;strokeWidth=1;fillColor=none;gradientColor=none;" vertex="1" parent="WIyWlLk6GJQsqaUBKTNV-1">
          <mxGeometry x="-1120" y="72" width="390" height="68" as="geometry" />
        </mxCell>
      </root>
    </mxGraphModel>
  </diagram>
</mxfile>
